<svg width="36" height="36" viewBox="0 0 36 36" fill="none" xmlns="http://www.w3.org/2000/svg">
<path d="M33.7837 11.9419C33.6419 10.0866 32.2234 7.7081 30.8048 6.5664C29.2096 5.398 27.5522 4.31813 25.8399 3.33161C24.1406 2.3183 22.3886 1.39728 20.5914 0.572514C19.6313 0.178518 18.6019 -0.0156721 17.5651 0.00166799C16.5281 -0.0202535 15.4977 0.174109 14.5389 0.572514C12.742 1.39787 10.99 2.31887 9.29036 3.33161C6.54785 4.99657 4.32548 6.5664 4.32548 6.5664C3.4525 7.30142 2.7379 8.19432 2.21272 9.18994C1.80726 9.95859 2.4292 10.8 3.29824 10.8C4.26357 10.8 5.1204 10.2381 5.74374 9.50103C6.01023 9.1859 6.30481 8.89238 6.62524 8.62445C6.62524 8.62445 8.4602 7.33719 10.7246 5.97192C12.128 5.14147 13.5746 4.38625 15.0583 3.70946C15.8499 3.38277 16.7007 3.22339 17.557 3.24137C18.4129 3.22715 19.2629 3.38638 20.0556 3.70946C21.5396 4.38577 22.9862 5.141 24.3893 5.97192C25.8031 6.78086 27.1716 7.66636 28.4887 8.62445C29.6599 9.56064 30.8312 11.511 30.9483 13.0323C30.9483 13.0323 31.2216 15.2948 31.2606 17.9746C31.2582 19.6297 31.167 21.2834 30.9873 22.9286C30.7149 24.6513 29.8273 26.2172 28.4887 27.3365C28.4887 27.3365 26.6537 28.6628 24.3893 30.0281C22.9859 30.8585 21.5393 31.6137 20.0556 32.2905C19.264 32.6172 18.4133 32.7766 17.557 32.7586C16.7018 32.7765 15.8518 32.6213 15.0583 32.3022C13.5743 31.6259 12.1277 30.8707 10.7246 30.0398C8.4602 28.7135 6.62524 27.3482 6.62524 27.3482C6.33483 27.1161 6.04442 26.8216 5.76948 26.4868C5.16157 25.7465 4.30766 25.2 3.34972 25.2C2.46161 25.2 1.84347 26.0647 2.27344 26.8418C2.83974 27.8653 3.58261 28.8024 4.32548 29.4003C4.32548 29.4003 6.54785 31.0652 9.29036 32.6826C10.9897 33.6959 12.7417 34.617 14.5389 35.4417C15.5 35.8308 16.5294 36.0202 17.5651 35.9983C18.6022 36.0202 19.6326 35.8259 20.5914 35.4274C22.3883 34.6021 24.1403 33.6811 25.8399 32.6684C28.5824 31.0034 30.8048 29.386 30.8048 29.386C32.4261 28.0209 33.5011 26.1114 33.831 24.0105C34.0486 22.0041 34.1591 19.9874 34.162 17.9691C34.1147 14.701 33.7837 11.9419 33.7837 11.9419Z" fill="url(#paint0_linear_1928_9420)"/>
<path d="M1.44141 14.0408C1.44141 13.6432 1.76376 13.3208 2.16141 13.3208H13.3214C13.7191 13.3208 14.0414 13.6432 14.0414 14.0408V16.2008C14.0414 16.5984 13.7191 16.9208 13.3214 16.9208H1.44141V14.0408Z" fill="#0066B3"/>
<path d="M1.44141 19.0801H24.1214C24.519 19.0801 24.8414 19.4024 24.8414 19.8001V21.9601C24.8414 22.3577 24.519 22.6801 24.1214 22.6801H2.16141C1.76376 22.6801 1.44141 22.3577 1.44141 21.9601V19.0801Z" fill="#EE2F53"/>
<defs>
<linearGradient id="paint0_linear_1928_9420" x1="17.8584" y1="0" x2="17.8584" y2="36" gradientUnits="userSpaceOnUse">
<stop stop-color="#0066B3"/>
<stop offset="0.354167" stop-color="#0066B3"/>
<stop offset="0.6875" stop-color="#EE2F53"/>
<stop offset="1" stop-color="#EE2F53"/>
</linearGradient>
</defs>
</svg>
