<svg width="61" height="61" viewBox="0 0 61 61" fill="none" xmlns="http://www.w3.org/2000/svg">
<g clip-path="url(#clip0_3041_2442)">
<path d="M44.5489 0.273438H25.0288H23.5162L22.4473 1.36492L7.67031 16.4573L6.60156 17.5487V19.0928V50.2077C6.60156 55.7577 11.0225 60.2736 16.4578 60.2736H44.5489C49.9825 60.2736 54.4034 55.7577 54.4034 50.2077V10.3394C54.4034 4.78844 49.9825 0.273438 44.5489 0.273438ZM50.7548 50.2076C50.7548 53.7088 47.9764 56.5464 44.5489 56.5464H16.4578C13.0287 56.5464 10.2503 53.7088 10.2503 50.2076V19.0927H19.8563C22.7118 19.0927 25.0288 16.7281 25.0288 13.8111V4.00047H44.5489C47.9764 4.00047 50.7548 6.83805 50.7548 10.3394V50.2076Z" fill="#00A772"/>
<path d="M20.8562 29.8945H17.5826C16.9593 29.8945 16.5859 30.3086 16.5859 30.9287V39.5718C16.5859 40.3204 17.0683 40.8138 17.7381 40.8138C18.3934 40.8138 18.8757 40.3205 18.8757 39.5718V36.9461C18.8757 36.8822 18.9077 36.8503 18.9702 36.8503H20.8562C23.162 36.8503 24.5497 35.4176 24.5497 33.3802C24.5498 31.3109 23.1781 29.8945 20.8562 29.8945ZM20.7153 34.8285H18.9702C18.9077 34.8285 18.8757 34.7966 18.8757 34.7336V32.0113C18.8757 31.9474 18.9077 31.9157 18.9702 31.9157H20.7153C21.6815 31.9157 22.2583 32.5048 22.2583 33.3803C22.2584 34.2557 21.6815 34.8285 20.7153 34.8285Z" fill="#00A772"/>
<path d="M29.8341 29.8945H27.3248C26.7015 29.8945 26.3281 30.3086 26.3281 30.9287V39.6994C26.3281 40.3205 26.7014 40.7181 27.3248 40.7181H29.8341C32.0934 40.7181 33.4971 39.9858 34.0579 38.2192C34.2598 37.5981 34.3703 36.8503 34.3703 35.3062C34.3703 33.7623 34.2597 33.0144 34.0579 32.3934C33.497 30.6268 32.0934 29.8945 29.8341 29.8945ZM31.8611 37.4075C31.5951 38.2666 30.8324 38.6332 29.7715 38.6332H28.7124C28.6499 38.6332 28.6179 38.6013 28.6179 38.5376V32.0752C28.6179 32.0113 28.6499 31.9794 28.7124 31.9794H29.7715C30.8324 31.9794 31.5951 32.346 31.8611 33.2052C31.9701 33.5718 32.047 34.2083 32.047 35.3064C32.047 36.4044 31.97 37.041 31.8611 37.4075Z" fill="#00A772"/>
<path d="M42.57 29.8945H37.428C36.8047 29.8945 36.4297 30.3086 36.4297 30.9287V39.5718C36.4297 40.3204 36.9137 40.8138 37.5835 40.8138C38.2372 40.8138 38.7211 40.3205 38.7211 39.5718V36.4837C38.7211 36.4207 38.7515 36.3888 38.814 36.3888H41.8073C42.477 36.3888 42.8664 35.9749 42.8664 35.3857C42.8664 34.7965 42.477 34.3834 41.8073 34.3834H38.814C38.7515 34.3834 38.7211 34.3515 38.7211 34.2877V32.0113C38.7211 31.9474 38.7515 31.9157 38.814 31.9157H42.57C43.2093 31.9157 43.6308 31.4861 43.6308 30.9134C43.6307 30.324 43.2092 29.8945 42.57 29.8945Z" fill="#00A772"/>
</g>
<defs>
<clipPath id="clip0_3041_2442">
<rect width="60" height="60" fill="white" transform="translate(0.5 0.273438)"/>
</clipPath>
</defs>
</svg>
