<svg width="68" height="68" viewBox="0 0 68 68" fill="none" xmlns="http://www.w3.org/2000/svg">
<path fill-rule="evenodd" clip-rule="evenodd" d="M34.0362 12.75C32.6876 12.75 31.4862 13.447 30.8119 14.6172L10.4176 50.218C9.75455 51.3797 9.76022 52.7652 10.4317 53.924C11.1032 55.0828 12.3046 55.777 13.6447 55.777H54.3966C55.7339 55.777 56.9352 55.0828 57.6067 53.924C58.2811 52.7652 58.2867 51.3797 57.6181 50.218L37.2606 14.6172C36.5891 13.447 35.3877 12.75 34.0362 12.75ZM54.3965 60.027H13.6447C10.7717 60.027 8.19622 58.5423 6.75405 56.0547C5.31189 53.5698 5.30339 50.5977 6.72855 48.1072L27.1286 12.5035C28.5622 9.996 31.1434 8.5 34.0362 8.5H34.0391C36.9291 8.5 39.5159 9.99883 40.9496 12.5092L61.3099 48.1072C62.7351 50.5977 62.7266 53.5698 61.2844 56.0547C59.8422 58.5423 57.2667 60.027 54.3965 60.027Z" fill="#00A772"/>
<path fill-rule="evenodd" clip-rule="evenodd" d="M34.0098 40.1329C32.8368 40.1329 31.8848 39.1809 31.8848 38.0079V29.2246C31.8848 28.0516 32.8368 27.0996 34.0098 27.0996C35.1828 27.0996 36.1348 28.0516 36.1348 29.2246V38.0079C36.1348 39.1809 35.1828 40.1329 34.0098 40.1329Z" fill="#00A772"/>
<path fill-rule="evenodd" clip-rule="evenodd" d="M34.0155 49.5807C32.4486 49.5807 31.168 48.3142 31.168 46.7474C31.168 45.1806 32.4231 43.9141 33.9871 43.9141H34.0155C35.5823 43.9141 36.8488 45.1806 36.8488 46.7474C36.8488 48.3142 35.5823 49.5807 34.0155 49.5807Z" fill="#00A772"/>
</svg>
