<svg width="68" height="68" viewBox="0 0 68 68" fill="none" xmlns="http://www.w3.org/2000/svg">
<path d="M29.7507 19.8333C29.7507 19.8333 25.5007 39.6667 25.5007 42.5C25.5007 45.3333 31.1674 51 34.0007 51C36.834 51 42.5007 45.3333 42.5007 42.5C42.5007 39.6667 38.2507 19.8333 38.2507 19.8333M29.7507 19.8333H38.2507M29.7507 19.8333L25.5007 11.3333M38.2507 19.8333L42.5007 11.3333M42.5007 11.3333C42.5007 11.3333 53.834 11.3333 56.6673 11.3333C59.5007 11.3333 59.5008 31.1667 56.6674 39.6667C53.834 48.1667 38.2507 62.3333 34.0007 62.3333C29.7507 62.3333 14.1673 48.1667 11.334 39.6667C8.50069 31.1667 8.50067 11.3333 11.334 11.3333C14.1673 11.3333 25.5007 11.3333 25.5007 11.3333M42.5007 11.3333C42.5007 11.3333 38.2507 8.5 34.0007 8.5C29.7507 8.5 25.5007 11.3333 25.5007 11.3333" stroke="#00A772" stroke-width="4"/>
</svg>
