<svg width="68" height="68" viewBox="0 0 68 68" fill="none" xmlns="http://www.w3.org/2000/svg">
<path fill-rule="evenodd" clip-rule="evenodd" d="M45.3327 34.0007C45.3327 32.827 44.3813 31.8757 43.2077 31.8757H14.166C12.9924 31.8757 12.041 32.827 12.041 34.0007C12.041 35.1743 12.9924 36.1257 14.166 36.1257H43.2077C44.3813 36.1257 45.3327 35.1743 45.3327 34.0007Z" fill="#00A772"/>
<path fill-rule="evenodd" clip-rule="evenodd" d="M55.9577 19.834C55.9577 18.6604 55.0063 17.709 53.8327 17.709H14.166C12.9924 17.709 12.041 18.6604 12.041 19.834C12.041 21.0076 12.9924 21.959 14.166 21.959H53.8327C55.0063 21.959 55.9577 21.0076 55.9577 19.834Z" fill="#00A772"/>
<path fill-rule="evenodd" clip-rule="evenodd" d="M31.166 48.1673C31.166 46.9937 30.2146 46.0423 29.041 46.0423H14.166C12.9924 46.0423 12.041 46.9937 12.041 48.1673C12.041 49.3409 12.9924 50.2923 14.166 50.2923H29.041C30.2146 50.2923 31.166 49.3409 31.166 48.1673Z" fill="#00A772"/>
<path fill-rule="evenodd" clip-rule="evenodd" d="M45.3327 34.0007C45.3327 32.827 44.3813 31.8757 43.2077 31.8757H14.166C12.9924 31.8757 12.041 32.827 12.041 34.0007C12.041 35.1743 12.9924 36.1257 14.166 36.1257H43.2077C44.3813 36.1257 45.3327 35.1743 45.3327 34.0007Z" stroke="#00A772"/>
<path fill-rule="evenodd" clip-rule="evenodd" d="M55.9577 19.834C55.9577 18.6604 55.0063 17.709 53.8327 17.709H14.166C12.9924 17.709 12.041 18.6604 12.041 19.834C12.041 21.0076 12.9924 21.959 14.166 21.959H53.8327C55.0063 21.959 55.9577 21.0076 55.9577 19.834Z" stroke="#00A772"/>
<path fill-rule="evenodd" clip-rule="evenodd" d="M31.166 48.1673C31.166 46.9937 30.2146 46.0423 29.041 46.0423H14.166C12.9924 46.0423 12.041 46.9937 12.041 48.1673C12.041 49.3409 12.9924 50.2923 14.166 50.2923H29.041C30.2146 50.2923 31.166 49.3409 31.166 48.1673Z" stroke="#00A772"/>
</svg>
