<svg width="21" height="21" viewBox="0 0 21 21" fill="none" xmlns="http://www.w3.org/2000/svg">
<g clip-path="url(#clip0_3080_21811)">
<path d="M15.1843 0.273438H8.67755H8.17336L7.81707 0.637266L2.8914 5.66805L2.53516 6.03188V6.54656V16.9182C2.53516 18.7682 4.0088 20.2735 5.82057 20.2735H15.1843C16.9955 20.2735 18.4691 18.7682 18.4691 16.9182V3.62875C18.4691 1.77844 16.9955 0.273438 15.1843 0.273438ZM17.2529 16.9182C17.2529 18.0852 16.3268 19.0311 15.1843 19.0311H5.82057C4.67754 19.0311 3.75139 18.0852 3.75139 16.9182V6.54652H6.95342C7.90524 6.54652 8.67755 5.75832 8.67755 4.78598V1.51578H15.1843C16.3268 1.51578 17.2529 2.46164 17.2529 3.62875V16.9182Z" fill="#1F242A"/>
<path d="M7.28671 10.1484H6.19551C5.98774 10.1484 5.86328 10.2864 5.86328 10.4932V13.3742C5.86328 13.6237 6.02408 13.7882 6.24734 13.7882C6.46577 13.7882 6.62653 13.6237 6.62653 13.3742V12.4989C6.62653 12.4777 6.63721 12.467 6.65805 12.467H7.28671C8.05531 12.467 8.51786 11.9895 8.51786 11.3103C8.51789 10.6205 8.06067 10.1484 7.28671 10.1484ZM7.23974 11.7931H6.65805C6.63721 11.7931 6.62653 11.7825 6.62653 11.7614V10.854C6.62653 10.8327 6.63721 10.8221 6.65805 10.8221H7.23974C7.56179 10.8221 7.75407 11.0185 7.75407 11.3104C7.75411 11.6021 7.56179 11.7931 7.23974 11.7931Z" fill="#1F242A"/>
<path d="M10.278 10.1484H9.4416C9.23384 10.1484 9.10938 10.2864 9.10938 10.4932V13.4167C9.10938 13.6237 9.2338 13.7563 9.4416 13.7563H10.278C11.0311 13.7563 11.499 13.5122 11.686 12.9233C11.7533 12.7163 11.7901 12.467 11.7901 11.9523C11.7901 11.4377 11.7532 11.1884 11.686 10.9814C11.499 10.3925 11.0311 10.1484 10.278 10.1484ZM10.9537 12.6528C10.865 12.9391 10.6108 13.0613 10.2572 13.0613H9.90414C9.8833 13.0613 9.87263 13.0507 9.87263 13.0295V10.8753C9.87263 10.854 9.8833 10.8434 9.90414 10.8434H10.2572C10.6108 10.8434 10.865 10.9656 10.9537 11.252C10.99 11.3742 11.0157 11.5864 11.0157 11.9524C11.0157 12.3184 10.99 12.5306 10.9537 12.6528Z" fill="#1F242A"/>
<path d="M14.5233 10.1484H12.8093C12.6016 10.1484 12.4766 10.2864 12.4766 10.4932V13.3742C12.4766 13.6237 12.6379 13.7882 12.8612 13.7882C13.0791 13.7882 13.2404 13.6237 13.2404 13.3742V12.3448C13.2404 12.3238 13.2505 12.3132 13.2713 12.3132H14.2691C14.4923 12.3132 14.6221 12.1752 14.6221 11.9788C14.6221 11.7824 14.4923 11.6447 14.2691 11.6447H13.2713C13.2505 11.6447 13.2404 11.6341 13.2404 11.6128V10.854C13.2404 10.8327 13.2505 10.8221 13.2713 10.8221H14.5233C14.7364 10.8221 14.8769 10.6789 14.8769 10.488C14.8769 10.2916 14.7364 10.1484 14.5233 10.1484Z" fill="#1F242A"/>
</g>
<defs>
<clipPath id="clip0_3080_21811">
<rect width="20" height="20" fill="white" transform="translate(0.5 0.273438)"/>
</clipPath>
</defs>
</svg>
