<svg width="68" height="68" viewBox="0 0 68 68" fill="none" xmlns="http://www.w3.org/2000/svg">
<path d="M34.0007 33.9994C41.8247 33.9994 48.1673 27.6567 48.1673 19.8327C48.1673 12.0086 41.8247 5.66602 34.0007 5.66602C26.1766 5.66602 19.834 12.0086 19.834 19.8327C19.834 27.6567 26.1766 33.9994 34.0007 33.9994Z" stroke="#00A772" stroke-width="4" stroke-linecap="round" stroke-linejoin="round"/>
<path d="M9.66211 62.3333C9.66211 51.3683 20.5704 42.5 34.0004 42.5C36.7204 42.5 39.3555 42.8683 41.8205 43.5483" stroke="#00A772" stroke-width="4" stroke-linecap="round" stroke-linejoin="round"/>
<path d="M65.166 52.416C65.166 53.436 65.0385 54.4241 64.7835 55.3804C64.4967 56.6554 63.9867 57.8985 63.3173 58.9823C61.1179 62.6798 57.0698 65.166 52.416 65.166C49.1329 65.166 46.1685 63.9228 43.9373 61.8828C42.981 61.054 42.1522 60.066 41.5147 58.9823C40.3353 57.0698 39.666 54.8066 39.666 52.416C39.666 48.9735 41.0367 45.818 43.2679 43.523C45.5948 41.1323 48.846 39.666 52.416 39.666C56.1773 39.666 59.5879 41.2917 61.8829 43.9054C63.9229 46.1686 65.166 49.1648 65.166 52.416Z" stroke="#00A772" stroke-width="4" stroke-miterlimit="10" stroke-linecap="round" stroke-linejoin="round"/>
<path d="M51.6558 44.8416C51.8953 44.1046 52.938 44.1046 53.1775 44.8416L54.4635 48.7995C54.5706 49.1291 54.8777 49.3522 55.2243 49.3522L59.3858 49.3522C60.1608 49.3522 60.483 50.3439 59.8561 50.7995L56.4893 53.2455C56.2089 53.4492 56.0916 53.8103 56.1987 54.14L57.4847 58.0978C57.7242 58.8348 56.8806 59.4477 56.2536 58.9922L52.8869 56.5461C52.6065 56.3424 52.2268 56.3424 51.9464 56.5461L48.5797 58.9922C47.9527 59.4477 47.1092 58.8348 47.3486 58.0978L48.6346 54.14C48.7417 53.8103 48.6244 53.4492 48.344 53.2455L44.9773 50.7995C44.3503 50.3439 44.6725 49.3522 45.4475 49.3522L49.609 49.3522C49.9556 49.3522 50.2627 49.1291 50.3698 48.7995L51.6558 44.8416Z" fill="#00A772"/>
</svg>
