<svg width="68" height="68" viewBox="0 0 68 68" fill="none" xmlns="http://www.w3.org/2000/svg">
<path d="M51.114 38.3903C49.924 39.552 49.244 41.2237 49.414 43.0087C49.669 46.0687 52.474 48.307 55.534 48.307H60.9173V51.6787C60.9173 57.5437 56.129 62.332 50.264 62.332H17.7373C11.8723 62.332 7.08398 57.5437 7.08398 51.6787V32.6104C7.08398 26.7454 11.8723 21.957 17.7373 21.957H50.264C56.129 21.957 60.9173 26.7454 60.9173 32.6104V36.6904H55.194C53.6073 36.6904 52.1623 37.3137 51.114 38.3903Z" stroke="#00A772" stroke-width="4" stroke-linecap="round" stroke-linejoin="round"/>
<path d="M7.08398 35.1607V22.2125C7.08398 18.8409 9.15232 15.8374 12.2973 14.6474L34.794 6.14741C38.3073 4.81574 42.0757 7.42249 42.0757 11.1908V21.9575" stroke="#00A772" stroke-width="4" stroke-linecap="round" stroke-linejoin="round"/>
<path d="M63.9173 39.5813V45.4181C63.9173 46.9765 62.6706 48.2513 61.0839 48.308H55.5306C52.4706 48.308 49.6656 46.0697 49.4106 43.0097C49.2406 41.2247 49.9206 39.553 51.1106 38.3913C52.159 37.3147 53.6039 36.6914 55.1906 36.6914H61.0839C62.6706 36.7481 63.9173 38.023 63.9173 39.5813Z" stroke="#00A772" stroke-width="4" stroke-linecap="round" stroke-linejoin="round"/>
<path d="M19.834 34H39.6673" stroke="#00A772" stroke-width="4" stroke-linecap="round" stroke-linejoin="round"/>
</svg>
