<svg width="24" height="24" viewBox="0 0 24 24" fill="none" xmlns="http://www.w3.org/2000/svg">
<path d="M3.36133 4.01172C5.28858 2.08434 6.54369 1.57378 7.88281 2.34375C8.26799 2.56525 8.62913 2.87537 9.12012 3.37402L10.627 4.93555C11.4589 5.84338 11.6478 6.71459 11.377 7.73438L11.3398 7.87012L11.2988 8.00391L11.0967 8.59473C10.6657 9.91965 10.8464 10.6671 12.3799 12.2002C13.9744 13.7943 14.7186 13.9253 16.1455 13.4268L16.4004 13.3379L16.708 13.2383L16.8428 13.2012C17.9267 12.9121 18.8424 13.1429 19.8135 14.1133L21.0273 15.2852L21.3838 15.6367C21.7799 16.0407 22.042 16.3609 22.2354 16.6992C23.0005 18.038 22.4888 19.292 20.5059 21.2676L20.3174 21.459C20.0214 21.7442 19.745 21.9487 19.3389 22.1416C18.6567 22.4655 17.8505 22.5873 16.9141 22.457C14.6066 22.1361 11.6799 20.3156 7.97168 16.6084C7.66994 16.3067 7.38104 16.0108 7.10449 15.7207L6.56738 15.1475C1.53768 9.68282 1.09406 6.32607 3.15527 4.2207L3.28906 4.08789L3.36133 4.01172ZM7.13574 3.64355C6.67422 3.37816 6.17513 3.49045 5.25293 4.28418L4.96387 4.54297C4.91333 4.58961 4.86149 4.63824 4.80859 4.68848L4.47656 5.01172L4.44629 5.0498L4.2207 5.27539C3.67635 5.8314 3.41843 6.5107 3.64062 7.67773C4.00538 9.59267 5.67465 12.1901 9.03223 15.5469C12.5311 19.0449 15.1974 20.7042 17.1211 20.9717C18.2423 21.1275 18.8142 20.8554 19.3975 20.2578L19.8428 19.8086C20.0512 19.5905 20.2295 19.3925 20.3799 19.2119L20.585 18.9531C21.1092 18.2547 21.1576 17.8357 20.9336 17.4434C20.8482 17.294 20.7237 17.1298 20.543 16.9297L20.2979 16.6709L20.1523 16.5254L18.6211 15.0469C18.1094 14.575 17.7594 14.5078 17.2285 14.6494L17.0752 14.6934L16.4414 14.9092C14.6014 15.5034 13.2741 15.2149 11.3193 13.2607C9.29469 11.2366 9.05698 9.88468 9.73535 7.93848L9.77832 7.81348L9.89941 7.45117L9.95801 7.21973C10.0628 6.7169 9.94293 6.36587 9.40234 5.8252C9.38017 5.80303 9.35505 5.77828 9.32812 5.75098L7.90625 4.28027C7.58073 3.95937 7.34426 3.76353 7.13574 3.64355Z" fill="#171717"/>
</svg>
