<svg width="24" height="24" viewBox="0 0 24 24" fill="none" xmlns="http://www.w3.org/2000/svg">
<path fill-rule="evenodd" clip-rule="evenodd" d="M11.9951 17.4266C11.5811 17.4266 11.2451 17.0906 11.2451 16.6766V14.1396C11.2451 13.7256 11.5811 13.3896 11.9951 13.3896C12.4091 13.3896 12.7451 13.7256 12.7451 14.1396V16.6766C12.7451 17.0906 12.4091 17.4266 11.9951 17.4266Z" fill="#171717"/>
<mask id="mask0_2106_19542" style="mask-type:luminance" maskUnits="userSpaceOnUse" x="2" y="4" width="20" height="11">
<path fill-rule="evenodd" clip-rule="evenodd" d="M2.00024 4.58008H21.99V14.8911H2.00024V4.58008Z" fill="white"/>
</mask>
<g mask="url(#mask0_2106_19542)">
<path fill-rule="evenodd" clip-rule="evenodd" d="M3.50024 11.3931C5.87624 12.6841 8.87224 13.3911 11.9902 13.3911C15.1142 13.3911 18.1132 12.6841 20.4902 11.3931V8.39108C20.4902 7.11608 19.4592 6.08008 18.1902 6.08008H5.81024C4.53624 6.08008 3.50024 7.11208 3.50024 8.38108V11.3931ZM11.9902 14.8911C8.44524 14.8911 5.02824 14.0331 2.37124 12.4771C2.14124 12.3431 2.00024 12.0971 2.00024 11.8301V8.38108C2.00024 6.28508 3.70924 4.58008 5.81024 4.58008H18.1902C20.2862 4.58008 21.9902 6.28908 21.9902 8.39108V11.8301C21.9902 12.0971 21.8482 12.3431 21.6192 12.4771C18.9622 14.0331 15.5422 14.8911 11.9902 14.8911Z" fill="#171717"/>
</g>
<mask id="mask1_2106_19542" style="mask-type:luminance" maskUnits="userSpaceOnUse" x="7" y="2" width="10" height="5">
<path fill-rule="evenodd" clip-rule="evenodd" d="M7.74512 2H16.2451V6.0759H7.74512V2Z" fill="white"/>
</mask>
<g mask="url(#mask1_2106_19542)">
<path fill-rule="evenodd" clip-rule="evenodd" d="M15.4951 6.076C15.0811 6.076 14.7451 5.74 14.7451 5.326V4.96C14.7451 4.155 14.0901 3.5 13.2851 3.5H10.7051C9.90012 3.5 9.24512 4.155 9.24512 4.96V5.326C9.24512 5.74 8.90912 6.076 8.49512 6.076C8.08112 6.076 7.74512 5.74 7.74512 5.326V4.96C7.74512 3.328 9.07312 2 10.7051 2H13.2851C14.9171 2 16.2451 3.328 16.2451 4.96V5.326C16.2451 5.74 15.9091 6.076 15.4951 6.076Z" fill="#171717"/>
</g>
<path fill-rule="evenodd" clip-rule="evenodd" d="M17.8311 21.5447H6.2311C4.15612 21.5447 2.4091 19.927 2.2521 17.8537L2.06207 11.3046C2.03107 10.8909 2.34108 10.5306 2.75407 10.4996C3.16907 10.4846 3.52707 10.7769 3.55907 11.1916L3.7481 17.7397C3.8461 19.0338 4.93611 20.0447 6.2311 20.0447H17.8311C19.1261 20.0447 20.2171 19.0338 20.3141 17.7397L20.5041 11.4965C20.5361 11.0819 20.9031 10.7885 21.3091 10.8045C21.7221 10.8356 22.0001 10.9998 22.0001 11.6095L21.8101 17.8537C21.6531 19.927 19.9061 21.5447 17.8311 21.5447Z" fill="#171717"/>
</svg>
