<svg width="1861" height="527" viewBox="0 0 1861 527" fill="none" xmlns="http://www.w3.org/2000/svg">
<g clip-path="url(#clip0_3066_22927)">
<rect width="1860" height="526" transform="translate(0.171875 0.273438)" fill="#1F242A"/>
<g filter="url(#filter0_f_3066_22927)">
<ellipse cx="949.069" cy="535.952" rx="1253.23" ry="321.679" fill="url(#paint0_radial_3066_22927)"/>
</g>
<path d="M306.268 274.453H204.571V521.332C192.802 522.613 180.895 521.395 169.628 517.758C158.36 514.12 147.984 508.145 139.176 500.221C130.368 492.298 123.325 482.604 118.508 471.771C113.69 460.938 111.205 449.21 111.215 437.351C111.183 416.676 118.728 396.708 132.419 381.235C146.109 365.763 164.993 355.862 185.487 353.412V274.706C143.794 277.036 104.573 295.265 75.8755 325.653C47.1783 356.04 31.1824 396.28 31.1719 438.111C31.1719 481.52 48.3829 523.151 79.02 553.849C109.657 584.548 151.211 601.8 194.544 601.811H295.315V353.328C298.348 353.033 301.423 352.821 304.541 352.821C326.402 352.256 347.626 360.227 363.727 375.051C379.829 389.874 389.547 410.387 390.827 432.256C392.107 454.125 384.849 475.636 370.587 492.243C356.325 508.849 336.176 519.25 314.399 521.248V601.431C356.278 599.341 395.753 581.205 424.657 550.774C453.56 520.343 469.681 479.947 469.683 437.942C469.627 394.563 452.385 352.979 421.745 322.325C391.105 291.671 349.572 274.453 306.268 274.453Z" fill="white" fill-opacity="0.2"/>
<path d="M750.801 274.664L603.353 417.939V274.453H512.609V606.453L514.21 604.765V604.807L731.97 397.555V601.853H822.714V274.453H750.886L750.801 274.664Z" fill="white" fill-opacity="0.2"/>
<path d="M1061.28 402.788H959.123V277.703L868.379 364.047V601.853H959.123V478.498H1061.28V601.853H1151.98V274.453H1061.28V402.788Z" fill="white" fill-opacity="0.2"/>
<path d="M1428.03 274.664L1280.58 417.939V274.453H1189.84V606.453L1191.44 604.765V604.807L1409.2 397.555V601.853H1499.94V274.453H1428.16L1428.03 274.664Z" fill="white" fill-opacity="0.2"/>
<path d="M1738.47 274.453V402.788H1636.31V277.703L1545.61 364.047V601.853H1636.31V478.498H1738.47V601.853H1829.17V274.453H1738.47Z" fill="white" fill-opacity="0.2"/>
</g>
<defs>
<filter id="filter0_f_3066_22927" x="-604.156" y="-85.7266" width="3106.45" height="1243.36" filterUnits="userSpaceOnUse" color-interpolation-filters="sRGB">
<feFlood flood-opacity="0" result="BackgroundImageFix"/>
<feBlend mode="normal" in="SourceGraphic" in2="BackgroundImageFix" result="shape"/>
<feGaussianBlur stdDeviation="150" result="effect1_foregroundBlur_3066_22927"/>
</filter>
<radialGradient id="paint0_radial_3066_22927" cx="0" cy="0" r="1" gradientUnits="userSpaceOnUse" gradientTransform="translate(949.069 535.952) rotate(90) scale(321.679 1253.23)">
<stop offset="0.00480769" stop-color="#94DEC7"/>
<stop offset="0.456731" stop-color="#4EAA8D"/>
<stop offset="1" stop-color="#003323"/>
</radialGradient>
<clipPath id="clip0_3066_22927">
<rect width="1860" height="526" fill="white" transform="translate(0.171875 0.273438)"/>
</clipPath>
</defs>
</svg>
