<svg width="24" height="25" viewBox="0 0 24 25" fill="none" xmlns="http://www.w3.org/2000/svg">
<path d="M9.24609 7.52734H18.8881" stroke="#C9CFD9" stroke-width="1.5" stroke-linecap="square"/>
<path fill-rule="evenodd" clip-rule="evenodd" d="M9.26039 7.46686C9.26039 6.02479 8.08265 4.85547 6.63019 4.85547C5.17774 4.85547 4 6.02479 4 7.46686C4 8.90894 5.17774 10.0783 6.63019 10.0783C8.08265 10.0783 9.26039 8.90894 9.26039 7.46686Z" stroke="#C9CFD9" stroke-width="1.5" stroke-linecap="square"/>
<path d="M14.7539 17.1406H5.11187" stroke="#C9CFD9" stroke-width="1.5" stroke-linecap="square"/>
<path fill-rule="evenodd" clip-rule="evenodd" d="M14.7396 17.0801C14.7396 15.6381 15.9174 14.4688 17.3698 14.4688C18.8223 14.4688 20 15.6381 20 17.0801C20 18.5222 18.8223 19.6915 17.3698 19.6915C15.9174 19.6915 14.7396 18.5222 14.7396 17.0801Z" stroke="#C9CFD9" stroke-width="1.5" stroke-linecap="square"/>
</svg>
